Patient4_TMGait_0pt4_01_right_44_GRF.mot
version=1
nRows=32
nColumns=19
inDegrees=no
endheader
time	F1x	F1y	F1z	M1x	M1y	M1z	F2x	F2y	F2z	M2x	M2y	M2z	EC1x	EC1y	EC1z	EC2x	EC2y	EC2z
57.52	-18.0498	818.3648	72.9949	-291.5809	-89.1793	949.1705	-13.5977	-17.0147	3.3735	-3.6246	2.3405	-12.9403	-0.0592	0.0182	-0.0073	-0.0462	0.0165	0.9585
57.5333	-15.2773	804.4554	73.7494	-287.2016	-88.4189	930.7184	-9.1661	-10.2568	2.1965	-2.0503	1.6685	-7.3713	-0.0592	0.0182	-0.0073	-0.0462	0.0165	0.9585
57.5466	-12.1019	788.2469	74.2456	-281.8479	-87.2749	909.331	-5.433	-4.5167	1.2155	-0.70389	1.1002	-2.6094	-0.0592	0.0182	-0.0073	-0.0462	0.0165	0.9585
57.5599	-8.7368	770.6679	74.4494	-275.8125	-85.8148	886.2165	-2.6114	-0.11829	0.4795	0.33699	0.67173	1.0682	-0.0592	0.0182	-0.0073	-0.0462	0.0165	0.9585
57.5731	-5.3929	752.9094	74.378	-269.5257	-84.133	862.8692	-0.67676	2.9545	-0.029928	1.0721	0.38938	3.6684	-0.0592	0.0182	-0.0073	-0.0462	0.0165	0.9585
57.5864	-2.2608	736.2675	74.0441	-263.4845	-82.2967	840.8542	0.48889	4.8938	-0.3434	1.5426	0.22966	5.3457	-0.0592	0.0182	-0.0073	-0.0462	0.0165	0.9585
57.5997	0.5335	721.9814	73.4708	-258.1795	-80.3535	821.6154	1.0632	5.9254	-0.51851	1.7949	0.17352	6.2546	-0.0592	0.0182	-0.0073	-0.0462	0.0165	0.9585
57.613	2.92	711.1219	72.6636	-254.0428	-78.3126	806.3523	1.2297	6.2621	-0.60186	1.8721	0.19308	6.5437	-0.0592	0.0182	-0.0073	-0.0462	0.0165	0.9585
57.6263	4.9106	704.4593	71.6683	-251.3963	-76.2002	795.8733	1.142	6.0461	-0.64601	1.7978	0.27988	6.295	-0.0592	0.0182	-0.0073	-0.0462	0.0165	0.9585
57.6396	6.5826	702.3993	70.5358	-250.4198	-74.0321	790.5474	0.92215	5.3449	-0.67499	1.5772	0.41085	5.5169	-0.0592	0.0182	-0.0073	-0.0462	0.0165	0.9585
57.6529	8.0946	704.9235	69.3604	-251.1225	-71.8472	790.2457	0.66778	4.1741	-0.71025	1.2019	0.5675	4.1817	-0.0592	0.0182	-0.0073	-0.0462	0.0165	0.9585
57.6661	9.6322	711.5669	68.2354	-253.3421	-69.6797	794.3644	0.45444	2.4936	-0.74869	0.65085	0.71121	2.2089	-0.0592	0.0182	-0.0073	-0.0462	0.0165	0.9585
57.6794	11.3736	721.4515	67.2691	-256.7556	-67.5812	801.8729	0.32606	0.26186	-0.77294	-0.093328	0.79752	-0.46543	-0.0592	0.0182	-0.0073	-0.0462	0.0165	0.9585
57.6927	13.4834	733.3718	66.5337	-260.9146	-65.5738	811.3967	0.33774	-2.489	-0.74474	-1.019	0.75983	-3.8101	-0.0592	0.0182	-0.0073	-0.0462	0.0165	0.9585
57.706	16.0611	745.9404	66.0832	-265.3001	-63.6872	821.4177	0.53767	-5.5829	-0.60938	-2.0624	0.51607	-7.6015	-0.0592	0.0182	-0.0073	-0.0462	0.0165	0.9585
57.7193	19.1569	757.6995	65.9259	-269.3672	-61.9274	830.3637	0.96177	-8.5983	-0.29226	-3.0726	-0.037233	-11.3029	-0.0592	0.0182	-0.0073	-0.0462	0.0165	0.9585
57.7326	22.7266	767.2239	66.0482	-272.5817	-60.3083	836.7503	1.641	-10.7353	0.29087	-3.7683	-1.0163	-13.9123	-0.0592	0.0182	-0.0073	-0.0462	0.0165	0.9585
57.7459	26.6404	773.1442	66.3759	-274.4337	-58.8109	839.2054	2.5734	-10.7176	1.2185	-3.7048	-2.5171	-13.8365	-0.0592	0.0182	-0.0073	-0.0462	0.0165	0.9585
57.7591	30.6702	774.1735	66.8034	-274.4469	-57.4198	836.5139	3.6974	-6.7416	2.5526	-2.2559	-4.5881	-8.8259	-0.0592	0.0182	-0.0073	-0.0462	0.0165	0.9585
57.7724	34.51	769.1977	67.1549	-272.2162	-56.0792	827.6865	4.8608	3.5365	4.2939	1.3851	-7.1691	4.0551	-0.0592	0.0182	-0.0073	-0.0462	0.0165	0.9585
57.7857	37.8248	757.373	67.2211	-267.4449	-54.7102	812.0269	5.7925	22.8368	6.3389	8.1467	-10.0263	28.2068	-0.0592	0.0182	-0.0073	-0.0462	0.0165	0.9585
57.799	40.2897	738.1669	66.7459	-259.9543	-53.1804	789.1497	6.0428	53.8374	8.4101	18.9333	-12.65	66.9736	-0.0592	0.0182	-0.0073	-0.0462	0.0165	0.9585
57.8123	41.671	711.283	65.507	-249.6604	-51.3555	758.8664	4.9569	98.4626	9.9913	34.3755	-14.1603	122.7452	-0.0592	0.0182	-0.0073	-0.0462	0.0165	0.9585
57.8256	41.8275	676.6078	63.2855	-236.5617	-49.0598	721.118	1.6914	156.7483	10.2401	54.434	-13.2111	195.5353	-0.0592	0.0182	-0.0073	-0.0462	0.0165	0.9585
57.8389	40.7241	634.2602	59.9052	-220.7574	-46.1092	676.0057	-4.483	225.5594	8.0281	77.9513	-8.1866	281.41	-0.0592	0.0182	-0.0073	-0.0462	0.0165	0.9585
57.8521	38.4527	584.8639	55.2385	-202.5429	-42.3154	624.0639	-13.0694	298.4962	2.5026	102.6359	1.7174	372.3475	-0.0592	0.0182	-0.0073	-0.0462	0.0165	0.9585
57.8654	35.245	529.8631	49.316	-182.5073	-37.5957	566.6032	-22.5393	367.8451	-6.0619	125.8186	15.5372	458.5888	-0.0592	0.0182	-0.0073	-0.0462	0.0165	0.9585
57.8787	31.439	471.4335	42.4182	-161.4839	-32.0839	505.643	-31.3455	428.6798	-16.5489	145.8573	31.3411	533.7991	-0.0592	0.0182	-0.0073	-0.0462	0.0165	0.9585
57.892	27.3178	411.8994	35.0687	-140.3244	-26.1779	443.392	-38.5418	479.8973	-27.3233	162.4858	46.8279	596.4979	-0.0592	0.0182	-0.0073	-0.0462	0.0165	0.9585
57.9053	23.0915	353.1773	27.9226	-119.6903	-20.4485	381.7046	-43.6762	522.4842	-36.9917	176.1685	60.1698	647.8816	-0.0592	0.0182	-0.0073	-0.0462	0.0165	0.9585
57.9186	18.8198	296.7118	21.5093	-100.0437	-15.4084	322.0503	-46.636	558.3487	-44.7564	187.6499	70.4043	690.3266	-0.0592	0.0182	-0.0073	-0.0462	0.0165	0.9585
57.9319	14.5131	243.6654	16.0754	-81.7388	-11.3199	265.6599	-47.5303	589.5337	-50.691	197.6534	77.6653	726.4109	-0.0592	0.0182	-0.0073	-0.0462	0.0165	0.9585
